<mxfile host="app.diagrams.net" modified="2024-02-26T08:03:34.287Z" agent="Mozilla/5.0 (Windows NT 10.0; Win64; x64) AppleWebKit/537.36 (KHTML, like Gecko) Chrome/122.0.0.0 Safari/537.36" etag="PdcFFbx1olrGr5tYqGuf" version="23.1.8" type="device">
  <diagram name="Page-1" id="7C-WFBa_drby8j5as7WV">
    <mxGraphModel dx="1304" dy="707" grid="0" gridSize="10" guides="1" tooltips="1" connect="1" arrows="1" fold="1" page="0" pageScale="1" pageWidth="850" pageHeight="1100" math="0" shadow="0">
      <root>
        <mxCell id="0" />
        <mxCell id="1" parent="0" />
        <mxCell id="gzTO_7dKEMfPrGxTYMJ8-1" value="Spēlētājs" style="shape=umlActor;verticalLabelPosition=bottom;verticalAlign=top;html=1;outlineConnect=0;" vertex="1" parent="1">
          <mxGeometry x="78" y="255" width="30" height="60" as="geometry" />
        </mxCell>
        <mxCell id="gzTO_7dKEMfPrGxTYMJ8-3" value="Admins" style="shape=umlActor;verticalLabelPosition=bottom;verticalAlign=top;html=1;outlineConnect=0;" vertex="1" parent="1">
          <mxGeometry x="78" y="428" width="30" height="60" as="geometry" />
        </mxCell>
        <mxCell id="gzTO_7dKEMfPrGxTYMJ8-5" value="" style="rounded=1;whiteSpace=wrap;html=1;" vertex="1" parent="1">
          <mxGeometry x="148" y="143" width="1215" height="554" as="geometry" />
        </mxCell>
        <mxCell id="gzTO_7dKEMfPrGxTYMJ8-31" style="edgeStyle=orthogonalEdgeStyle;rounded=0;orthogonalLoop=1;jettySize=auto;html=1;exitX=1;exitY=0.5;exitDx=0;exitDy=0;entryX=0;entryY=0.5;entryDx=0;entryDy=0;dashed=1;" edge="1" parent="1" source="gzTO_7dKEMfPrGxTYMJ8-12" target="gzTO_7dKEMfPrGxTYMJ8-30">
          <mxGeometry relative="1" as="geometry" />
        </mxCell>
        <mxCell id="gzTO_7dKEMfPrGxTYMJ8-12" value="Spēlēt viena mēģinājuma mīklu" style="ellipse;whiteSpace=wrap;html=1;" vertex="1" parent="1">
          <mxGeometry x="156" y="238" width="122" height="60" as="geometry" />
        </mxCell>
        <mxCell id="gzTO_7dKEMfPrGxTYMJ8-19" style="edgeStyle=orthogonalEdgeStyle;rounded=0;orthogonalLoop=1;jettySize=auto;html=1;exitX=1;exitY=0.5;exitDx=0;exitDy=0;entryX=0;entryY=0.5;entryDx=0;entryDy=0;dashed=1;" edge="1" parent="1" source="gzTO_7dKEMfPrGxTYMJ8-13" target="gzTO_7dKEMfPrGxTYMJ8-16">
          <mxGeometry relative="1" as="geometry" />
        </mxCell>
        <mxCell id="gzTO_7dKEMfPrGxTYMJ8-13" value="Spēlēt ikdienas mīklu" style="ellipse;whiteSpace=wrap;html=1;" vertex="1" parent="1">
          <mxGeometry x="178" y="161" width="122" height="60" as="geometry" />
        </mxCell>
        <mxCell id="gzTO_7dKEMfPrGxTYMJ8-14" value="Spēlēt brīvspēli" style="ellipse;whiteSpace=wrap;html=1;" vertex="1" parent="1">
          <mxGeometry x="156" y="315" width="122" height="60" as="geometry" />
        </mxCell>
        <mxCell id="gzTO_7dKEMfPrGxTYMJ8-15" value="Admin panelis" style="ellipse;whiteSpace=wrap;html=1;" vertex="1" parent="1">
          <mxGeometry x="316" y="428" width="122" height="60" as="geometry" />
        </mxCell>
        <mxCell id="gzTO_7dKEMfPrGxTYMJ8-20" style="edgeStyle=orthogonalEdgeStyle;rounded=0;orthogonalLoop=1;jettySize=auto;html=1;exitX=1;exitY=0.5;exitDx=0;exitDy=0;entryX=0;entryY=0.5;entryDx=0;entryDy=0;dashed=1;" edge="1" parent="1" source="gzTO_7dKEMfPrGxTYMJ8-16" target="gzTO_7dKEMfPrGxTYMJ8-17">
          <mxGeometry relative="1" as="geometry" />
        </mxCell>
        <mxCell id="gzTO_7dKEMfPrGxTYMJ8-16" value="Atbildēt 5 gatavas mīklas" style="ellipse;whiteSpace=wrap;html=1;" vertex="1" parent="1">
          <mxGeometry x="777" y="161" width="122" height="60" as="geometry" />
        </mxCell>
        <mxCell id="gzTO_7dKEMfPrGxTYMJ8-17" value="5 mēģinājumi katram jautājumam" style="ellipse;whiteSpace=wrap;html=1;" vertex="1" parent="1">
          <mxGeometry x="1176" y="161" width="122" height="60" as="geometry" />
        </mxCell>
        <mxCell id="gzTO_7dKEMfPrGxTYMJ8-21" style="rounded=0;orthogonalLoop=1;jettySize=auto;html=1;exitX=0;exitY=0.5;exitDx=0;exitDy=0;entryX=0.984;entryY=0.65;entryDx=0;entryDy=0;dashed=1;entryPerimeter=0;" edge="1" parent="1" source="gzTO_7dKEMfPrGxTYMJ8-18" target="gzTO_7dKEMfPrGxTYMJ8-16">
          <mxGeometry relative="1" as="geometry" />
        </mxCell>
        <mxCell id="gzTO_7dKEMfPrGxTYMJ8-18" value="Mēģināt vēlreiz" style="ellipse;whiteSpace=wrap;html=1;" vertex="1" parent="1">
          <mxGeometry x="1176" y="232" width="122" height="60" as="geometry" />
        </mxCell>
        <mxCell id="gzTO_7dKEMfPrGxTYMJ8-22" value="Atbildēt 5 randomizētas mīklas" style="ellipse;whiteSpace=wrap;html=1;" vertex="1" parent="1">
          <mxGeometry x="841" y="238" width="122" height="60" as="geometry" />
        </mxCell>
        <mxCell id="gzTO_7dKEMfPrGxTYMJ8-27" style="rounded=0;orthogonalLoop=1;jettySize=auto;html=1;exitX=0;exitY=0.5;exitDx=0;exitDy=0;entryX=1;entryY=0.5;entryDx=0;entryDy=0;dashed=1;" edge="1" parent="1" source="gzTO_7dKEMfPrGxTYMJ8-25" target="gzTO_7dKEMfPrGxTYMJ8-22">
          <mxGeometry relative="1" as="geometry" />
        </mxCell>
        <mxCell id="gzTO_7dKEMfPrGxTYMJ8-25" value="1 mēģinājums katram jautājumam" style="ellipse;whiteSpace=wrap;html=1;" vertex="1" parent="1">
          <mxGeometry x="1176" y="375" width="122" height="60" as="geometry" />
        </mxCell>
        <mxCell id="gzTO_7dKEMfPrGxTYMJ8-28" style="rounded=0;orthogonalLoop=1;jettySize=auto;html=1;exitX=0;exitY=0.5;exitDx=0;exitDy=0;entryX=1;entryY=1;entryDx=0;entryDy=0;dashed=1;" edge="1" parent="1" source="gzTO_7dKEMfPrGxTYMJ8-26" target="gzTO_7dKEMfPrGxTYMJ8-22">
          <mxGeometry relative="1" as="geometry" />
        </mxCell>
        <mxCell id="gzTO_7dKEMfPrGxTYMJ8-26" value="Mēģināt vēlreiz" style="ellipse;whiteSpace=wrap;html=1;" vertex="1" parent="1">
          <mxGeometry x="1176" y="449" width="122" height="60" as="geometry" />
        </mxCell>
        <mxCell id="gzTO_7dKEMfPrGxTYMJ8-32" style="edgeStyle=orthogonalEdgeStyle;rounded=0;orthogonalLoop=1;jettySize=auto;html=1;exitX=1;exitY=0.5;exitDx=0;exitDy=0;dashed=1;" edge="1" parent="1" source="gzTO_7dKEMfPrGxTYMJ8-30" target="gzTO_7dKEMfPrGxTYMJ8-22">
          <mxGeometry relative="1" as="geometry" />
        </mxCell>
        <mxCell id="gzTO_7dKEMfPrGxTYMJ8-30" value="Izvēlēties bildes filtrus" style="ellipse;whiteSpace=wrap;html=1;" vertex="1" parent="1">
          <mxGeometry x="478" y="238" width="122" height="60" as="geometry" />
        </mxCell>
        <mxCell id="gzTO_7dKEMfPrGxTYMJ8-33" style="edgeStyle=orthogonalEdgeStyle;rounded=0;orthogonalLoop=1;jettySize=auto;html=1;exitX=1;exitY=0.5;exitDx=0;exitDy=0;entryX=0;entryY=0.5;entryDx=0;entryDy=0;dashed=1;" edge="1" parent="1" target="gzTO_7dKEMfPrGxTYMJ8-36" source="gzTO_7dKEMfPrGxTYMJ8-14">
          <mxGeometry relative="1" as="geometry">
            <mxPoint x="300" y="345" as="sourcePoint" />
          </mxGeometry>
        </mxCell>
        <mxCell id="gzTO_7dKEMfPrGxTYMJ8-46" style="rounded=0;orthogonalLoop=1;jettySize=auto;html=1;exitX=1;exitY=1;exitDx=0;exitDy=0;entryX=0.5;entryY=0;entryDx=0;entryDy=0;dashed=1;" edge="1" parent="1" source="gzTO_7dKEMfPrGxTYMJ8-34" target="gzTO_7dKEMfPrGxTYMJ8-45">
          <mxGeometry relative="1" as="geometry" />
        </mxCell>
        <mxCell id="gzTO_7dKEMfPrGxTYMJ8-34" value="Izvēlēties tēmu" style="ellipse;whiteSpace=wrap;html=1;" vertex="1" parent="1">
          <mxGeometry x="568" y="315" width="122" height="60" as="geometry" />
        </mxCell>
        <mxCell id="gzTO_7dKEMfPrGxTYMJ8-35" style="edgeStyle=orthogonalEdgeStyle;rounded=0;orthogonalLoop=1;jettySize=auto;html=1;exitX=1;exitY=0.5;exitDx=0;exitDy=0;dashed=1;" edge="1" parent="1" source="gzTO_7dKEMfPrGxTYMJ8-36" target="gzTO_7dKEMfPrGxTYMJ8-34">
          <mxGeometry relative="1" as="geometry" />
        </mxCell>
        <mxCell id="gzTO_7dKEMfPrGxTYMJ8-36" value="Izvēlēties bildes filtrus" style="ellipse;whiteSpace=wrap;html=1;" vertex="1" parent="1">
          <mxGeometry x="373" y="315" width="122" height="60" as="geometry" />
        </mxCell>
        <mxCell id="gzTO_7dKEMfPrGxTYMJ8-47" style="rounded=0;orthogonalLoop=1;jettySize=auto;html=1;exitX=0;exitY=0.5;exitDx=0;exitDy=0;entryX=1;entryY=0;entryDx=0;entryDy=0;dashed=1;" edge="1" parent="1" source="gzTO_7dKEMfPrGxTYMJ8-37" target="gzTO_7dKEMfPrGxTYMJ8-45">
          <mxGeometry relative="1" as="geometry" />
        </mxCell>
        <mxCell id="gzTO_7dKEMfPrGxTYMJ8-37" value="Minēt mīklu" style="ellipse;whiteSpace=wrap;html=1;" vertex="1" parent="1">
          <mxGeometry x="854" y="407" width="122" height="60" as="geometry" />
        </mxCell>
        <mxCell id="gzTO_7dKEMfPrGxTYMJ8-48" style="rounded=0;orthogonalLoop=1;jettySize=auto;html=1;exitX=0;exitY=0.5;exitDx=0;exitDy=0;entryX=0.984;entryY=0.297;entryDx=0;entryDy=0;dashed=1;entryPerimeter=0;" edge="1" parent="1" source="gzTO_7dKEMfPrGxTYMJ8-39" target="gzTO_7dKEMfPrGxTYMJ8-45">
          <mxGeometry relative="1" as="geometry" />
        </mxCell>
        <mxCell id="gzTO_7dKEMfPrGxTYMJ8-39" value="Mainīt tēmu" style="ellipse;whiteSpace=wrap;html=1;" vertex="1" parent="1">
          <mxGeometry x="854" y="481" width="122" height="60" as="geometry" />
        </mxCell>
        <mxCell id="gzTO_7dKEMfPrGxTYMJ8-49" style="rounded=0;orthogonalLoop=1;jettySize=auto;html=1;exitX=0;exitY=0.5;exitDx=0;exitDy=0;entryX=0.97;entryY=0.658;entryDx=0;entryDy=0;dashed=1;entryPerimeter=0;" edge="1" parent="1" source="gzTO_7dKEMfPrGxTYMJ8-41" target="gzTO_7dKEMfPrGxTYMJ8-45">
          <mxGeometry relative="1" as="geometry" />
        </mxCell>
        <mxCell id="gzTO_7dKEMfPrGxTYMJ8-41" value="Mainīt filtrus" style="ellipse;whiteSpace=wrap;html=1;" vertex="1" parent="1">
          <mxGeometry x="854" y="560" width="122" height="60" as="geometry" />
        </mxCell>
        <mxCell id="gzTO_7dKEMfPrGxTYMJ8-50" style="rounded=0;orthogonalLoop=1;jettySize=auto;html=1;exitX=0;exitY=0.5;exitDx=0;exitDy=0;entryX=1;entryY=1;entryDx=0;entryDy=0;dashed=1;" edge="1" parent="1" source="gzTO_7dKEMfPrGxTYMJ8-42" target="gzTO_7dKEMfPrGxTYMJ8-45">
          <mxGeometry relative="1" as="geometry" />
        </mxCell>
        <mxCell id="gzTO_7dKEMfPrGxTYMJ8-42" value="Ģenerēt jaunu mīklu" style="ellipse;whiteSpace=wrap;html=1;" vertex="1" parent="1">
          <mxGeometry x="854" y="630" width="122" height="60" as="geometry" />
        </mxCell>
        <mxCell id="gzTO_7dKEMfPrGxTYMJ8-45" value="Sākt minēt" style="ellipse;whiteSpace=wrap;html=1;" vertex="1" parent="1">
          <mxGeometry x="655" y="485" width="122" height="60" as="geometry" />
        </mxCell>
        <mxCell id="gzTO_7dKEMfPrGxTYMJ8-54" style="rounded=0;orthogonalLoop=1;jettySize=auto;html=1;exitX=0;exitY=0.5;exitDx=0;exitDy=0;entryX=1;entryY=0.5;entryDx=0;entryDy=0;dashed=1;" edge="1" parent="1" source="gzTO_7dKEMfPrGxTYMJ8-51" target="gzTO_7dKEMfPrGxTYMJ8-15">
          <mxGeometry relative="1" as="geometry" />
        </mxCell>
        <mxCell id="gzTO_7dKEMfPrGxTYMJ8-51" value="Ģenerēt jaunu ikdienas mīklu" style="ellipse;whiteSpace=wrap;html=1;" vertex="1" parent="1">
          <mxGeometry x="511" y="428" width="122" height="60" as="geometry" />
        </mxCell>
        <mxCell id="gzTO_7dKEMfPrGxTYMJ8-55" style="rounded=0;orthogonalLoop=1;jettySize=auto;html=1;exitX=0;exitY=0.5;exitDx=0;exitDy=0;entryX=0.932;entryY=0.792;entryDx=0;entryDy=0;dashed=1;entryPerimeter=0;" edge="1" parent="1" source="gzTO_7dKEMfPrGxTYMJ8-52" target="gzTO_7dKEMfPrGxTYMJ8-15">
          <mxGeometry relative="1" as="geometry" />
        </mxCell>
        <mxCell id="gzTO_7dKEMfPrGxTYMJ8-52" value="Dzēst datus par minējumiem" style="ellipse;whiteSpace=wrap;html=1;" vertex="1" parent="1">
          <mxGeometry x="511" y="521" width="122" height="60" as="geometry" />
        </mxCell>
        <mxCell id="gzTO_7dKEMfPrGxTYMJ8-56" style="rounded=0;orthogonalLoop=1;jettySize=auto;html=1;exitX=0;exitY=0.5;exitDx=0;exitDy=0;entryX=0.727;entryY=0.958;entryDx=0;entryDy=0;dashed=1;entryPerimeter=0;" edge="1" parent="1" source="gzTO_7dKEMfPrGxTYMJ8-53" target="gzTO_7dKEMfPrGxTYMJ8-15">
          <mxGeometry relative="1" as="geometry" />
        </mxCell>
        <mxCell id="gzTO_7dKEMfPrGxTYMJ8-53" value="Rediģēt datus par minējumiem" style="ellipse;whiteSpace=wrap;html=1;" vertex="1" parent="1">
          <mxGeometry x="511" y="606" width="122" height="60" as="geometry" />
        </mxCell>
        <mxCell id="gzTO_7dKEMfPrGxTYMJ8-58" style="rounded=0;orthogonalLoop=1;jettySize=auto;html=1;exitX=0.5;exitY=0;exitDx=0;exitDy=0;entryX=0.5;entryY=1;entryDx=0;entryDy=0;dashed=1;" edge="1" parent="1" source="gzTO_7dKEMfPrGxTYMJ8-57" target="gzTO_7dKEMfPrGxTYMJ8-15">
          <mxGeometry relative="1" as="geometry" />
        </mxCell>
        <mxCell id="gzTO_7dKEMfPrGxTYMJ8-57" value="Pievienot jaunus datus par minējumiem" style="ellipse;whiteSpace=wrap;html=1;" vertex="1" parent="1">
          <mxGeometry x="361" y="616" width="130" height="67" as="geometry" />
        </mxCell>
        <mxCell id="gzTO_7dKEMfPrGxTYMJ8-61" style="rounded=0;orthogonalLoop=1;jettySize=auto;html=1;exitX=0.5;exitY=0;exitDx=0;exitDy=0;entryX=0.5;entryY=1;entryDx=0;entryDy=0;dashed=1;" edge="1" parent="1" source="gzTO_7dKEMfPrGxTYMJ8-60" target="gzTO_7dKEMfPrGxTYMJ8-45">
          <mxGeometry relative="1" as="geometry" />
        </mxCell>
        <mxCell id="gzTO_7dKEMfPrGxTYMJ8-60" value="Atgriezties sākumlapā" style="ellipse;whiteSpace=wrap;html=1;" vertex="1" parent="1">
          <mxGeometry x="692" y="605" width="114" height="61" as="geometry" />
        </mxCell>
        <mxCell id="gzTO_7dKEMfPrGxTYMJ8-62" value="Atgriezties sākumlapā" style="ellipse;whiteSpace=wrap;html=1;" vertex="1" parent="1">
          <mxGeometry x="790" y="328" width="130" height="67" as="geometry" />
        </mxCell>
        <mxCell id="gzTO_7dKEMfPrGxTYMJ8-63" style="rounded=0;orthogonalLoop=1;jettySize=auto;html=1;exitX=0;exitY=1;exitDx=0;exitDy=0;entryX=0.697;entryY=0.047;entryDx=0;entryDy=0;entryPerimeter=0;dashed=1;" edge="1" parent="1" source="gzTO_7dKEMfPrGxTYMJ8-62" target="gzTO_7dKEMfPrGxTYMJ8-45">
          <mxGeometry relative="1" as="geometry" />
        </mxCell>
        <mxCell id="gzTO_7dKEMfPrGxTYMJ8-66" style="rounded=0;orthogonalLoop=1;jettySize=auto;html=1;exitX=0.221;exitY=0.092;exitDx=0;exitDy=0;entryX=0.623;entryY=1.033;entryDx=0;entryDy=0;dashed=1;exitPerimeter=0;entryPerimeter=0;" edge="1" parent="1" source="gzTO_7dKEMfPrGxTYMJ8-65" target="gzTO_7dKEMfPrGxTYMJ8-22">
          <mxGeometry relative="1" as="geometry" />
        </mxCell>
        <mxCell id="gzTO_7dKEMfPrGxTYMJ8-65" value="Atgriezties sākumlapā" style="ellipse;whiteSpace=wrap;html=1;" vertex="1" parent="1">
          <mxGeometry x="1010" y="432" width="104" height="65.5" as="geometry" />
        </mxCell>
        <mxCell id="gzTO_7dKEMfPrGxTYMJ8-67" value="Atgriezties sākumlapā" style="ellipse;whiteSpace=wrap;html=1;" vertex="1" parent="1">
          <mxGeometry x="1188" y="304" width="98" height="61" as="geometry" />
        </mxCell>
        <mxCell id="gzTO_7dKEMfPrGxTYMJ8-68" style="rounded=0;orthogonalLoop=1;jettySize=auto;html=1;exitX=0;exitY=0.5;exitDx=0;exitDy=0;entryX=1;entryY=1;entryDx=0;entryDy=0;dashed=1;" edge="1" parent="1" source="gzTO_7dKEMfPrGxTYMJ8-67" target="gzTO_7dKEMfPrGxTYMJ8-16">
          <mxGeometry relative="1" as="geometry" />
        </mxCell>
        <mxCell id="gzTO_7dKEMfPrGxTYMJ8-70" value="&amp;lt;&amp;lt;include&amp;gt;&amp;gt;" style="text;html=1;align=center;verticalAlign=middle;whiteSpace=wrap;rounded=0;" vertex="1" parent="1">
          <mxGeometry x="509" y="161" width="60" height="30" as="geometry" />
        </mxCell>
        <mxCell id="gzTO_7dKEMfPrGxTYMJ8-71" value="&amp;lt;&amp;lt;include&amp;gt;&amp;gt;" style="text;html=1;align=center;verticalAlign=middle;whiteSpace=wrap;rounded=0;" vertex="1" parent="1">
          <mxGeometry x="338" y="235" width="60" height="30" as="geometry" />
        </mxCell>
        <mxCell id="gzTO_7dKEMfPrGxTYMJ8-72" value="&amp;lt;&amp;lt;include&amp;gt;&amp;gt;" style="text;html=1;align=center;verticalAlign=middle;whiteSpace=wrap;rounded=0;" vertex="1" parent="1">
          <mxGeometry x="686" y="238" width="60" height="30" as="geometry" />
        </mxCell>
        <mxCell id="gzTO_7dKEMfPrGxTYMJ8-73" value="&amp;lt;&amp;lt;include&amp;gt;&amp;gt;" style="text;html=1;align=center;verticalAlign=middle;whiteSpace=wrap;rounded=0;" vertex="1" parent="1">
          <mxGeometry x="296" y="315" width="60" height="30" as="geometry" />
        </mxCell>
        <mxCell id="gzTO_7dKEMfPrGxTYMJ8-74" value="&amp;lt;&amp;lt;include&amp;gt;&amp;gt;" style="text;html=1;align=center;verticalAlign=middle;whiteSpace=wrap;rounded=0;" vertex="1" parent="1">
          <mxGeometry x="499" y="315" width="60" height="30" as="geometry" />
        </mxCell>
        <mxCell id="gzTO_7dKEMfPrGxTYMJ8-75" value="&amp;lt;&amp;lt;include&amp;gt;&amp;gt;" style="text;html=1;align=center;verticalAlign=middle;whiteSpace=wrap;rounded=0;" vertex="1" parent="1">
          <mxGeometry x="626" y="405" width="60" height="30" as="geometry" />
        </mxCell>
        <mxCell id="gzTO_7dKEMfPrGxTYMJ8-76" value="&amp;lt;&amp;lt;include&amp;gt;&amp;gt;" style="text;html=1;align=center;verticalAlign=middle;whiteSpace=wrap;rounded=0;" vertex="1" parent="1">
          <mxGeometry x="1021" y="161" width="60" height="30" as="geometry" />
        </mxCell>
        <mxCell id="gzTO_7dKEMfPrGxTYMJ8-77" value="&amp;lt;&amp;lt;extend&amp;gt;&amp;gt;" style="text;html=1;align=center;verticalAlign=middle;whiteSpace=wrap;rounded=0;" vertex="1" parent="1">
          <mxGeometry x="1054" y="205" width="60" height="30" as="geometry" />
        </mxCell>
        <mxCell id="gzTO_7dKEMfPrGxTYMJ8-78" value="&amp;lt;&amp;lt;extend&amp;gt;&amp;gt;" style="text;html=1;align=center;verticalAlign=middle;whiteSpace=wrap;rounded=0;" vertex="1" parent="1">
          <mxGeometry x="1048" y="255" width="60" height="30" as="geometry" />
        </mxCell>
        <mxCell id="gzTO_7dKEMfPrGxTYMJ8-79" value="&amp;lt;&amp;lt;extend&amp;gt;&amp;gt;" style="text;html=1;align=center;verticalAlign=middle;whiteSpace=wrap;rounded=0;" vertex="1" parent="1">
          <mxGeometry x="1048" y="298" width="60" height="30" as="geometry" />
        </mxCell>
        <mxCell id="gzTO_7dKEMfPrGxTYMJ8-80" value="&amp;lt;&amp;lt;extend&amp;gt;&amp;gt;" style="text;html=1;align=center;verticalAlign=middle;whiteSpace=wrap;rounded=0;" vertex="1" parent="1">
          <mxGeometry x="1024" y="337" width="60" height="30" as="geometry" />
        </mxCell>
        <mxCell id="gzTO_7dKEMfPrGxTYMJ8-81" value="&amp;lt;&amp;lt;extend&amp;gt;&amp;gt;" style="text;html=1;align=center;verticalAlign=middle;whiteSpace=wrap;rounded=0;" vertex="1" parent="1">
          <mxGeometry x="980" y="357" width="60" height="30" as="geometry" />
        </mxCell>
        <mxCell id="gzTO_7dKEMfPrGxTYMJ8-82" value="&amp;lt;&amp;lt;extend&amp;gt;&amp;gt;" style="text;html=1;align=center;verticalAlign=middle;whiteSpace=wrap;rounded=0;" vertex="1" parent="1">
          <mxGeometry x="736" y="385" width="60" height="30" as="geometry" />
        </mxCell>
        <mxCell id="gzTO_7dKEMfPrGxTYMJ8-83" value="&amp;lt;&amp;lt;extend&amp;gt;&amp;gt;" style="text;html=1;align=center;verticalAlign=middle;whiteSpace=wrap;rounded=0;" vertex="1" parent="1">
          <mxGeometry x="777" y="422" width="60" height="30" as="geometry" />
        </mxCell>
        <mxCell id="gzTO_7dKEMfPrGxTYMJ8-84" value="&amp;lt;&amp;lt;extend&amp;gt;&amp;gt;" style="text;html=1;align=center;verticalAlign=middle;whiteSpace=wrap;rounded=0;" vertex="1" parent="1">
          <mxGeometry x="802" y="467.5" width="60" height="30" as="geometry" />
        </mxCell>
        <mxCell id="gzTO_7dKEMfPrGxTYMJ8-85" value="&amp;lt;&amp;lt;extend&amp;gt;&amp;gt;" style="text;html=1;align=center;verticalAlign=middle;whiteSpace=wrap;rounded=0;" vertex="1" parent="1">
          <mxGeometry x="798" y="521" width="60" height="30" as="geometry" />
        </mxCell>
        <mxCell id="gzTO_7dKEMfPrGxTYMJ8-86" value="&amp;lt;&amp;lt;extend&amp;gt;&amp;gt;" style="text;html=1;align=center;verticalAlign=middle;whiteSpace=wrap;rounded=0;" vertex="1" parent="1">
          <mxGeometry x="784" y="567" width="60" height="30" as="geometry" />
        </mxCell>
        <mxCell id="gzTO_7dKEMfPrGxTYMJ8-87" value="&amp;lt;&amp;lt;extend&amp;gt;&amp;gt;" style="text;html=1;align=center;verticalAlign=middle;whiteSpace=wrap;rounded=0;" vertex="1" parent="1">
          <mxGeometry x="674" y="570" width="60" height="30" as="geometry" />
        </mxCell>
        <mxCell id="gzTO_7dKEMfPrGxTYMJ8-88" value="&amp;lt;&amp;lt;extend&amp;gt;&amp;gt;" style="text;html=1;align=center;verticalAlign=middle;whiteSpace=wrap;rounded=0;" vertex="1" parent="1">
          <mxGeometry x="451" y="433" width="60" height="30" as="geometry" />
        </mxCell>
        <mxCell id="gzTO_7dKEMfPrGxTYMJ8-89" value="&amp;lt;&amp;lt;extend&amp;gt;&amp;gt;" style="text;html=1;align=center;verticalAlign=middle;whiteSpace=wrap;rounded=0;" vertex="1" parent="1">
          <mxGeometry x="464" y="487" width="60" height="30" as="geometry" />
        </mxCell>
        <mxCell id="gzTO_7dKEMfPrGxTYMJ8-90" value="&amp;lt;&amp;lt;extend&amp;gt;&amp;gt;" style="text;html=1;align=center;verticalAlign=middle;whiteSpace=wrap;rounded=0;" vertex="1" parent="1">
          <mxGeometry x="434" y="525" width="60" height="30" as="geometry" />
        </mxCell>
        <mxCell id="gzTO_7dKEMfPrGxTYMJ8-91" value="&amp;lt;&amp;lt;extend&amp;gt;&amp;gt;" style="text;html=1;align=center;verticalAlign=middle;whiteSpace=wrap;rounded=0;" vertex="1" parent="1">
          <mxGeometry x="391" y="545" width="60" height="30" as="geometry" />
        </mxCell>
        <mxCell id="gzTO_7dKEMfPrGxTYMJ8-93" style="edgeStyle=orthogonalEdgeStyle;rounded=0;orthogonalLoop=1;jettySize=auto;html=1;exitX=1;exitY=0.5;exitDx=0;exitDy=0;entryX=0;entryY=0.5;entryDx=0;entryDy=0;dashed=1;" edge="1" parent="1" source="gzTO_7dKEMfPrGxTYMJ8-92" target="gzTO_7dKEMfPrGxTYMJ8-15">
          <mxGeometry relative="1" as="geometry" />
        </mxCell>
        <mxCell id="gzTO_7dKEMfPrGxTYMJ8-92" value="Ielogoties admin kontā" style="ellipse;whiteSpace=wrap;html=1;" vertex="1" parent="1">
          <mxGeometry x="156" y="428" width="122" height="60" as="geometry" />
        </mxCell>
        <mxCell id="gzTO_7dKEMfPrGxTYMJ8-94" value="&amp;lt;&amp;lt;include&amp;gt;&amp;gt;" style="text;html=1;align=center;verticalAlign=middle;whiteSpace=wrap;rounded=0;" vertex="1" parent="1">
          <mxGeometry x="266" y="419" width="60" height="30" as="geometry" />
        </mxCell>
        <mxCell id="gzTO_7dKEMfPrGxTYMJ8-96" style="rounded=0;orthogonalLoop=1;jettySize=auto;html=1;exitX=0;exitY=0.5;exitDx=0;exitDy=0;entryX=0.5;entryY=0.5;entryDx=0;entryDy=0;entryPerimeter=0;endArrow=none;endFill=0;" edge="1" parent="1" source="gzTO_7dKEMfPrGxTYMJ8-13" target="gzTO_7dKEMfPrGxTYMJ8-1">
          <mxGeometry relative="1" as="geometry" />
        </mxCell>
        <mxCell id="gzTO_7dKEMfPrGxTYMJ8-97" style="rounded=0;orthogonalLoop=1;jettySize=auto;html=1;exitX=0;exitY=0.5;exitDx=0;exitDy=0;entryX=0.5;entryY=0.5;entryDx=0;entryDy=0;entryPerimeter=0;endArrow=none;endFill=0;" edge="1" parent="1" source="gzTO_7dKEMfPrGxTYMJ8-12" target="gzTO_7dKEMfPrGxTYMJ8-1">
          <mxGeometry relative="1" as="geometry" />
        </mxCell>
        <mxCell id="gzTO_7dKEMfPrGxTYMJ8-99" style="rounded=0;orthogonalLoop=1;jettySize=auto;html=1;exitX=0;exitY=0.5;exitDx=0;exitDy=0;entryX=0.5;entryY=0.5;entryDx=0;entryDy=0;entryPerimeter=0;endArrow=none;endFill=0;" edge="1" parent="1" source="gzTO_7dKEMfPrGxTYMJ8-14" target="gzTO_7dKEMfPrGxTYMJ8-1">
          <mxGeometry relative="1" as="geometry" />
        </mxCell>
        <mxCell id="gzTO_7dKEMfPrGxTYMJ8-100" style="rounded=0;orthogonalLoop=1;jettySize=auto;html=1;exitX=0;exitY=0.5;exitDx=0;exitDy=0;entryX=0.5;entryY=0.5;entryDx=0;entryDy=0;entryPerimeter=0;endArrow=none;endFill=0;" edge="1" parent="1" source="gzTO_7dKEMfPrGxTYMJ8-92" target="gzTO_7dKEMfPrGxTYMJ8-3">
          <mxGeometry relative="1" as="geometry" />
        </mxCell>
      </root>
    </mxGraphModel>
  </diagram>
</mxfile>
